<svg width="436" height="130" viewBox="0 0 436 130" fill="none" xmlns="http://www.w3.org/2000/svg">
<path d="M419.398 129.046H16.1307C7.09751 129.046 0 121.625 0 112.915V16.1307C0 7.0975 7.42012 0 16.1307 0H419.398C428.431 0 435.529 7.42012 435.529 16.1307V112.915C435.529 121.625 428.431 129.046 419.398 129.046Z" fill="black"/>
<path fill-rule="evenodd" clip-rule="evenodd" d="M16.1307 125.333H419.398C426.333 125.333 431.816 119.623 431.816 112.915V16.1307C431.816 9.42213 426.333 3.71269 419.398 3.71269H16.1307C9.42213 3.71269 3.71269 9.19608 3.71269 16.1307V112.915C3.71269 119.623 9.19608 125.333 16.1307 125.333ZM16.1307 129.046H419.398C428.431 129.046 435.529 121.625 435.529 112.915V16.1307C435.529 7.42012 428.431 0 419.398 0H16.1307C7.42012 0 0 7.0975 0 16.1307V112.915C0 121.625 7.09751 129.046 16.1307 129.046Z" fill="#E2E8F0"/>
<path d="M89.3801 63.555C89.3801 54.4864 96.9216 50.276 97.2495 49.9521C92.9869 43.7984 86.429 43.1506 84.1337 42.8267C78.5595 42.179 73.3132 46.0655 70.3622 46.0655C67.4111 46.0655 63.1485 42.8267 58.5579 42.8267C52.6558 42.8267 47.0816 46.3894 43.8027 51.5715C37.5727 62.2595 42.1632 78.4535 48.3932 87.1982C51.3443 91.4086 54.9511 96.2668 59.5416 96.2668C64.1322 95.9429 65.7716 93.3519 71.3458 93.3519C76.9201 93.3519 78.2316 96.2668 83.1501 96.2668C88.0685 96.2668 91.0195 92.0564 93.9706 87.5221C97.5774 82.6639 98.889 77.8057 98.889 77.4818C98.889 77.8057 89.3801 74.243 89.3801 63.555Z" fill="white"/>
<path d="M80.1977 37.3237C82.4929 34.409 84.4603 30.1989 83.8045 25.9888C80.1977 25.9888 75.935 28.2558 73.3119 31.4943C71.0166 34.0852 69.0492 38.2953 69.705 42.5054C73.6398 42.5054 77.9024 40.2384 80.1977 37.3237Z" fill="white"/>
<path d="M134.47 37.4129C138.628 37.4129 140.759 35.0999 140.759 32.2671C140.759 29.1224 138.316 27.901 134.912 27.0953C131.871 26.3676 130.104 25.7179 130.104 23.8727C130.104 22.2354 131.715 20.78 133.924 20.78C135.795 20.78 137.562 21.6377 139.044 23.067L140.291 21.4817C138.654 19.9744 136.679 18.9348 134.028 18.9348C130.597 18.9348 128.05 21.1699 128.05 24.0286C128.05 27.1213 130.312 28.2388 133.898 29.0705C137.017 29.7981 138.706 30.5518 138.706 32.449C138.706 34.0603 137.303 35.5677 134.548 35.5677C132.053 35.5677 130.208 34.5021 128.7 32.9948L127.427 34.5801C129.22 36.3473 131.533 37.4129 134.47 37.4129Z" fill="white"/>
<path d="M150.044 35.1518C149.758 35.4637 149.239 35.6976 148.641 35.6976C147.861 35.6976 147.186 34.9959 147.186 34.0083V25.432H150.486V23.6908H147.186V20.0004H145.236V23.6908H143.131V25.432H145.236V34.0083C145.236 36.0095 146.588 37.4389 148.511 37.4389C149.421 37.4389 150.304 37.127 151.006 36.5812L150.044 35.1518Z" fill="white"/>
<path d="M162.522 18.8828L160.469 18.415L157.324 22.1574H158.832L162.522 18.8828ZM159.221 23.3789C157.922 23.3789 156.311 23.7168 154.388 24.6783L155.167 26.2637C156.389 25.6399 157.74 25.0422 159.091 25.0422C162.002 25.0422 162.73 27.1213 162.73 28.9405V29.4343C161.353 28.9925 159.819 28.6806 158.364 28.6806C155.479 28.6806 153.088 30.4739 153.088 33.1507C153.088 35.8016 155.167 37.4389 158 37.4389C159.767 37.4389 161.768 36.6072 162.73 35.0219V37.127H164.679V28.9405C164.679 25.6919 162.886 23.3789 159.221 23.3789ZM158.338 35.7236C156.441 35.7236 154.985 34.736 154.985 33.0727C154.985 31.4614 156.675 30.3179 158.676 30.3179C160.131 30.3179 161.508 30.5258 162.73 30.8637V32.9168C162.21 34.814 160.105 35.7236 158.338 35.7236Z" fill="white"/>
<path d="M175.055 23.3789C173.158 23.3789 171.416 24.4185 170.637 25.8478V18.9608H168.688V37.127H170.637V28.5767C170.637 26.7055 172.534 25.1202 174.795 25.1202C176.77 25.1202 178.148 26.6535 178.148 28.8366V37.127H180.097V28.5767C180.097 25.536 178.018 23.3789 175.055 23.3789Z" fill="white"/>
<path d="M190.435 23.3789C188.538 23.3789 186.797 24.4185 186.017 25.8478V23.6908H184.068V37.127H186.017V28.5767C186.017 26.7055 187.914 25.1202 190.175 25.1202C192.15 25.1202 193.528 26.6535 193.528 28.8366V37.127H195.477V28.5767C195.477 25.536 193.398 23.3789 190.435 23.3789Z" fill="white"/>
<path d="M205.659 37.4389C209.428 37.4389 212.598 34.2162 212.598 30.3959C212.598 26.5755 209.428 23.3789 205.659 23.3789C201.891 23.3789 198.694 26.5755 198.694 30.3959C198.694 34.2162 201.891 37.4389 205.659 37.4389ZM205.659 35.6976C202.982 35.6976 200.747 33.2806 200.747 30.3959C200.747 27.5371 202.982 25.1202 205.659 25.1202C208.31 25.1202 210.545 27.5371 210.545 30.3959C210.545 33.2806 208.31 35.6976 205.659 35.6976Z" fill="white"/>
<path d="M225.277 23.6908V32.2411C225.277 34.1123 223.38 35.6976 221.119 35.6976C219.144 35.6976 217.766 34.1643 217.766 31.9812V23.6908H215.817V32.2411C215.817 35.2818 217.896 37.4389 220.859 37.4389C222.756 37.4389 224.497 36.3993 225.277 34.9699V37.127H227.226V23.6908H225.277Z" fill="white"/>
<path d="M237.097 35.1518C236.811 35.4637 236.291 35.6976 235.693 35.6976C234.914 35.6976 234.238 34.9959 234.238 34.0083V25.432H237.539V23.6908H234.238V20.0004H232.289V23.6908H230.184V25.432H232.289V34.0083C232.289 36.0095 233.64 37.4389 235.563 37.4389C236.473 37.4389 237.357 37.127 238.058 36.5812L237.097 35.1518Z" fill="white"/>
<path d="M153.839 92.8173H161.851L148.337 59.6593H140.373L126.859 92.8173H134.823L136.946 87.6047H151.715L153.839 92.8173ZM139.408 81.5715L144.331 69.457L149.254 81.5715H139.408Z" fill="white"/>
<path d="M180.963 67.2851C177.488 67.2851 174.592 68.7813 172.613 71.3394V67.8643H165.566V101.119H172.613V89.2939C174.592 91.9002 177.488 93.3965 180.963 93.3965C187.623 93.3965 192.45 87.9908 192.45 80.3167C192.45 72.6908 187.623 67.2851 180.963 67.2851ZM178.936 87.4599C175.509 87.4599 172.999 84.9501 172.613 81.282V79.3514C172.999 75.7315 175.509 73.2217 178.936 73.2217C182.845 73.2217 185.596 76.1659 185.596 80.3167C185.596 84.5157 182.845 87.4599 178.936 87.4599Z" fill="white"/>
<path d="M212.825 67.2851C209.35 67.2851 206.454 68.7813 204.475 71.3394V67.8643H197.429V101.119H204.475V89.2939C206.454 91.9002 209.35 93.3965 212.825 93.3965C219.486 93.3965 224.312 87.9908 224.312 80.3167C224.312 72.6908 219.486 67.2851 212.825 67.2851ZM210.798 87.4599C207.371 87.4599 204.861 84.9501 204.475 81.282V79.3514C204.861 75.7315 207.371 73.2217 210.798 73.2217C214.707 73.2217 217.459 76.1659 217.459 80.3167C217.459 84.5157 214.707 87.4599 210.798 87.4599Z" fill="white"/>
<path d="M255.513 93.3965C263.622 93.3965 268.4 89.1974 268.4 82.8747C268.4 76.7451 263.67 74.6214 256.527 73.0287C251.411 71.8703 249.432 71.0981 249.432 68.6848C249.432 66.7059 251.266 65.1132 254.307 65.1132C257.492 65.1132 260.822 66.4164 263.767 68.7813L267.483 63.6653C264.104 60.7694 259.905 59.0801 254.5 59.0801C247.26 59.0801 242.24 63.2791 242.24 69.4088C242.24 75.828 247.212 77.8069 254.21 79.3996C259.278 80.558 261.209 81.282 261.209 83.6469C261.209 85.7223 259.374 87.3633 255.803 87.3633C251.604 87.3633 248.032 85.7223 244.895 83.0195L240.792 87.8943C244.654 91.4659 249.77 93.3965 255.513 93.3965Z" fill="white"/>
<path d="M286.442 86.6394C285.959 87.122 284.994 87.4599 284.029 87.4599C282.726 87.4599 281.664 86.3015 281.664 84.6605V73.5596H287.069V67.8643H281.664V61.0107H274.907V67.8643H271.48V73.5596H274.907V85.7706C274.907 90.2592 277.996 93.3965 282.388 93.3965C284.415 93.3965 286.683 92.5277 288.131 91.2245L286.442 86.6394Z" fill="white"/>
<path d="M304.804 93.3965C312.188 93.3965 318.366 87.4116 318.366 80.3167C318.366 73.2217 312.188 67.2851 304.804 67.2851C297.371 67.2851 291.145 73.2217 291.145 80.3167C291.145 87.4116 297.371 93.3965 304.804 93.3965ZM304.804 87.4599C301.039 87.4599 297.902 84.1779 297.902 80.3167C297.902 76.4555 301.039 73.2217 304.804 73.2217C308.52 73.2217 311.657 76.4555 311.657 80.3167C311.657 84.1779 308.52 87.4599 304.804 87.4599Z" fill="white"/>
<path d="M330.181 72.4977V67.8643H323.134V92.8173H330.181V80.8958C330.181 76.2141 333.511 73.2217 338.724 73.2217V67.2851C334.911 67.2851 331.822 69.264 330.181 72.4977Z" fill="white"/>
<path d="M354.566 87.1703C351.622 87.1703 349.45 85.3362 348.629 82.6334H366.632C366.632 73.2217 362.047 67.2851 354.228 67.2851C346.94 67.2851 341.389 72.7391 341.389 80.2684C341.389 87.9425 347.181 93.3965 354.614 93.3965C358.282 93.3965 362.578 91.852 364.798 89.5353L360.309 84.9501C358.958 86.2532 356.545 87.1703 354.566 87.1703ZM354.517 73.5113C357.365 73.5113 359.199 75.104 359.875 77.5656H348.726C349.643 75.0558 351.863 73.5113 354.517 73.5113Z" fill="white"/>
</svg>
