<svg width="436" height="130" viewBox="0 0 436 130" fill="none" xmlns="http://www.w3.org/2000/svg">
<path d="M419.656 129.046H16.3885C7.35532 129.046 0.257812 121.625 0.257812 112.915V16.1307C0.257812 7.0975 7.67793 0 16.3885 0H419.656C428.689 0 435.787 7.42012 435.787 16.1307V112.915C435.787 121.625 428.689 129.046 419.656 129.046Z" fill="black"/>
<path fill-rule="evenodd" clip-rule="evenodd" d="M16.3885 125.333H419.656C426.591 125.333 432.074 119.623 432.074 112.915V16.1307C432.074 9.42213 426.591 3.71269 419.656 3.71269H16.3885C9.67995 3.71269 3.9705 9.19608 3.9705 16.1307V112.915C3.9705 119.623 9.45389 125.333 16.3885 125.333ZM16.3885 129.046H419.656C428.689 129.046 435.787 121.625 435.787 112.915V16.1307C435.787 7.42012 428.689 0 419.656 0H16.3885C7.67793 0 0.257812 7.0975 0.257812 16.1307V112.915C0.257812 121.625 7.35532 129.046 16.3885 129.046Z" fill="#E2E8F0"/>
<path d="M30.0153 26.9854C29.1061 27.8945 28.5 29.4098 28.5 31.2282V98.2039C28.5 100.022 29.1061 101.538 30.0153 102.447L30.3183 102.75L67.8975 65.1706V64.8676V64.5645L30.0153 26.9854Z" fill="url(#paint0_linear_29403_23813)"/>
<path d="M80.3238 77.9044L67.8984 65.4791V64.873V64.5699L80.3238 52.1445L80.6269 52.4476L95.4767 60.9332C99.7195 63.3577 99.7195 67.2974 95.4767 69.7219L80.3238 77.9044Z" fill="url(#paint1_linear_29403_23813)"/>
<path d="M80.6165 77.622L67.8881 64.8936L30.0059 102.776C31.5211 104.291 33.6426 104.291 36.3701 103.079L80.6165 77.622Z" fill="url(#paint2_linear_29403_23813)"/>
<path d="M80.6165 52.1598L36.3701 27.006C33.6426 25.4907 31.5211 25.7938 30.0059 27.3091L67.8881 64.8882L80.6165 52.1598Z" fill="url(#paint3_linear_29403_23813)"/>
<path opacity="0.2" d="M80.3056 77.3228L36.3623 102.173C33.9378 103.689 31.8164 103.386 30.3011 102.173L29.998 102.477L30.3011 102.78C31.8164 103.992 33.9378 104.295 36.3623 102.78L80.3056 77.3228Z" fill="black"/>
<path opacity="0.12" d="M29.9949 102.19C29.0858 101.281 28.7827 99.7656 28.7827 97.9473V98.2503C28.7827 100.069 29.3888 101.584 30.298 102.493V102.19H29.9949Z" fill="black"/>
<path opacity="0.12" d="M95.4732 68.8333L80.3203 77.3189L80.6234 77.622L95.4732 69.1364C97.5946 67.9241 98.5038 66.4088 98.5038 64.8936C98.5038 66.4088 97.2915 67.6211 95.4732 68.8333Z" fill="black"/>
<path opacity="0.25" d="M36.386 27.2997L95.4823 60.9391C97.3006 62.1513 98.5129 63.3636 98.5129 64.8788C98.5129 63.3636 97.6037 61.8483 95.4823 60.636L36.386 26.9966C32.1432 24.5722 28.8096 26.6936 28.8096 31.5425V31.8455C28.8096 26.9966 32.1432 24.8752 36.386 27.2997Z" fill="white"/>
<path d="M144.973 79.738H152.696V84.8058C150.813 86.1572 148.497 86.9294 146.228 86.9294C140.581 86.9294 135.803 82.0064 135.803 76.2146C135.803 70.4711 140.581 65.5481 146.228 65.5481C149.269 65.5481 152.503 66.996 154.482 69.2645L159.646 64.631C156.316 61.156 151.2 59.0806 146.228 59.0806C136.624 59.0806 128.467 66.8995 128.467 76.2146C128.467 85.5298 136.624 93.3969 146.228 93.3969C151.2 93.3969 156.316 91.3216 159.646 87.8465V74.1875H144.973V79.738Z" fill="white"/>
<path d="M177.705 93.3969C185.089 93.3969 191.267 87.4121 191.267 80.3171C191.267 73.2222 185.089 67.2856 177.705 67.2856C170.272 67.2856 164.046 73.2222 164.046 80.3171C164.046 87.4121 170.272 93.3969 177.705 93.3969ZM177.705 87.4604C173.94 87.4604 170.803 84.1783 170.803 80.3171C170.803 76.4559 173.94 73.2222 177.705 73.2222C181.421 73.2222 184.559 76.4559 184.559 80.3171C184.559 84.1783 181.421 87.4604 177.705 87.4604Z" fill="white"/>
<path d="M208.295 93.3969C215.679 93.3969 221.857 87.4121 221.857 80.3171C221.857 73.2222 215.679 67.2856 208.295 67.2856C200.862 67.2856 194.636 73.2222 194.636 80.3171C194.636 87.4121 200.862 93.3969 208.295 93.3969ZM208.295 87.4604C204.53 87.4604 201.393 84.1783 201.393 80.3171C201.393 76.4559 204.53 73.2222 208.295 73.2222C212.011 73.2222 215.148 76.4559 215.148 80.3171C215.148 84.1783 212.011 87.4604 208.295 87.4604Z" fill="white"/>
<path d="M244.676 67.8648V71.2433C242.987 68.8784 239.802 67.2856 236.423 67.2856C230.149 67.2856 225.37 72.1604 225.37 79.1105C225.37 86.0607 230.149 90.9837 236.423 90.9837C239.705 90.9837 242.697 89.5357 244.676 87.1225V89.8736C244.676 93.1074 241.78 95.1827 237.244 95.1827C234.348 95.1827 231.452 94.2657 229.811 92.8178L227.349 97.7891C229.811 99.7197 233.962 101.119 238.354 101.119C246.221 101.119 251.771 96.5824 251.771 90.1632V67.8648H244.676ZM238.643 85.0471C235.12 85.0471 232.61 82.5856 232.61 79.1105C232.61 75.6354 235.12 73.2222 238.643 73.2222C242.167 73.2222 244.676 75.6354 244.676 79.1105C244.676 82.5856 242.167 85.0471 238.643 85.0471Z" fill="white"/>
<path d="M257.969 92.8178H265.016V59.0806H257.969V92.8178Z" fill="white"/>
<path d="M282.943 87.1708C279.999 87.1708 277.827 85.3367 277.007 82.6339H295.01C295.01 73.2222 290.424 67.2856 282.605 67.2856C275.317 67.2856 269.767 72.7395 269.767 80.2689C269.767 87.943 275.559 93.3969 282.992 93.3969C286.66 93.3969 290.955 91.8525 293.175 89.5357L288.687 84.9506C287.335 86.2537 284.922 87.1708 282.943 87.1708ZM282.895 73.5118C285.743 73.5118 287.577 75.1045 288.252 77.566H277.103C278.02 75.0563 280.24 73.5118 282.895 73.5118Z" fill="white"/>
<path d="M313.45 92.8178H320.545V82.0547H328.364C335.555 82.0547 340.865 77.4212 340.865 70.8572C340.865 64.2932 335.555 59.6597 328.364 59.6597H313.45V92.8178ZM320.545 75.5389V66.1755H327.592C331.115 66.1755 333.528 68.0096 333.528 70.8572C333.528 73.7048 331.115 75.5389 327.592 75.5389H320.545Z" fill="white"/>
<path d="M345.119 92.8178H352.166V59.0806H345.119V92.8178Z" fill="white"/>
<path d="M369.466 67.2856C365.991 67.2856 362.564 68.2509 359.041 70.0367L361.406 74.7184C363.385 73.7048 365.557 72.9326 367.873 72.9326C371.976 72.9326 373.617 75.2493 373.617 77.9039V78.3865C371.493 77.566 369.273 77.1317 367.246 77.1317C361.454 77.1317 356.869 80.5102 356.869 85.4332C356.869 90.2115 360.971 93.3969 366.281 93.3969C368.983 93.3969 371.831 92.3351 373.617 90.308V92.8178H380.422V77.9039C380.422 71.3881 375.982 67.2856 369.466 67.2856ZM367.873 88.5222C365.46 88.5222 363.674 87.2673 363.674 85.2402C363.674 83.213 365.701 81.7168 368.259 81.7168C370.19 81.7168 372.024 82.0547 373.617 82.6339V84.9506C373.134 87.2673 370.576 88.5222 367.873 88.5222Z" fill="white"/>
<path d="M392.057 101.505C395.966 101.505 399.152 98.9474 401.034 94.0727L411.266 67.8648H404.075L397.849 85.385L391.284 67.8648H383.996L394.373 93.0591L393.505 94.8932C392.974 95.8102 391.912 96.2446 390.561 96.2446C389.74 96.2446 388.485 95.8102 387.279 95.1345L385.782 99.961C387.472 100.878 389.981 101.505 392.057 101.505Z" fill="white"/>
<path d="M128.931 37.1241H130.958V22.5963L142.03 37.1241H144.057V19.2697H142.03V33.7975L130.958 19.2697H128.931V37.1241Z" fill="white"/>
<path d="M150.464 41.802C152.309 41.7761 153.608 40.9184 154.544 38.6314L160.677 23.6878H158.572L154.128 34.863L149.424 23.6878H147.267L153.115 37.176L152.335 38.8393C151.815 39.7489 151.243 40.0348 150.386 40.0348C149.814 40.0348 149.268 39.9308 148.8 39.6969L148.333 41.3602C148.956 41.6461 149.684 41.802 150.464 41.802Z" fill="white"/>
<path d="M170.261 23.376C168.364 23.376 166.623 24.4155 165.843 25.8449V23.6878H163.894V37.1241H165.843V28.5737C165.843 26.7025 167.74 25.1172 170.001 25.1172C171.977 25.1172 173.354 26.6506 173.354 28.8336V37.1241H175.303V28.5737C175.303 25.533 173.224 23.376 170.261 23.376Z" fill="white"/>
<path d="M179.43 22.1545H180.937L184.628 18.8799L182.575 18.4121L179.43 22.1545ZM179.222 37.1241H181.171V23.6878H179.222V37.1241Z" fill="white"/>
<path d="M199.016 23.376C197.119 23.376 195.378 24.4155 194.598 25.8449V23.6878H192.649V37.1241H194.598V28.5737C194.598 26.7025 196.496 25.1172 198.757 25.1172C200.732 25.1172 202.109 26.6506 202.109 28.8336V37.1241H204.058V28.5737C204.058 25.533 201.979 23.376 199.016 23.376Z" fill="white"/>
<path d="M213.461 23.376C212.162 23.376 210.55 23.7138 208.627 24.6754L209.407 26.2607C210.628 25.637 211.98 25.0393 213.331 25.0393C216.242 25.0393 216.969 27.1184 216.969 28.9376V29.4314C215.592 28.9896 214.059 28.6777 212.603 28.6777C209.719 28.6777 207.328 30.4709 207.328 33.1478C207.328 35.7986 209.407 37.4359 212.24 37.4359C214.007 37.4359 216.008 36.6043 216.969 35.019V37.1241H218.919V28.9376C218.919 25.689 217.125 23.376 213.461 23.376ZM212.577 35.7207C210.68 35.7207 209.225 34.7331 209.225 33.0698C209.225 31.4585 210.914 30.315 212.915 30.315C214.371 30.315 215.748 30.5229 216.969 30.8608V32.9139C216.45 34.8111 214.345 35.7207 212.577 35.7207Z" fill="white"/>
<defs>
<linearGradient id="paint0_linear_29403_23813" x1="64.563" y1="30.6514" x2="13.7026" y2="81.5118" gradientUnits="userSpaceOnUse">
<stop stop-color="#00A0FF"/>
<stop offset="0.00657445" stop-color="#00A1FF"/>
<stop offset="0.2601" stop-color="#00BEFF"/>
<stop offset="0.5122" stop-color="#00D2FF"/>
<stop offset="0.7604" stop-color="#00DFFF"/>
<stop offset="1" stop-color="#00E3FF"/>
</linearGradient>
<linearGradient id="paint1_linear_29403_23813" x1="101.036" y1="64.8772" x2="27.7054" y2="64.8772" gradientUnits="userSpaceOnUse">
<stop stop-color="#FFE000"/>
<stop offset="0.4087" stop-color="#FFBD00"/>
<stop offset="0.7754" stop-color="#FFA500"/>
<stop offset="1" stop-color="#FF9C00"/>
</linearGradient>
<linearGradient id="paint2_linear_29403_23813" x1="73.728" y1="71.8521" x2="4.75721" y2="140.823" gradientUnits="userSpaceOnUse">
<stop stop-color="#FF3A44"/>
<stop offset="1" stop-color="#C31162"/>
</linearGradient>
<linearGradient id="paint3_linear_29403_23813" x1="20.6029" y1="4.81065" x2="51.4014" y2="35.6089" gradientUnits="userSpaceOnUse">
<stop stop-color="#32A071"/>
<stop offset="0.0685" stop-color="#2DA771"/>
<stop offset="0.4762" stop-color="#15CF74"/>
<stop offset="0.8009" stop-color="#06E775"/>
<stop offset="1" stop-color="#00F076"/>
</linearGradient>
</defs>
</svg>
